<svg xmlns="http://www.w3.org/2000/svg" viewBox="0 0 1280 800" width="1280" height="800" role="img" aria-label="Atelier Norte — imagen de ejemplo">
  <defs>
    <linearGradient id="an-g" x1="0" y1="0" x2="1280" y2="800" gradientUnits="userSpaceOnUse">
      <stop offset="0" stop-color="#6242FC"/>
      <stop offset="0.52" stop-color="#3882FB"/>
      <stop offset="1" stop-color="#10C8FC"/>
    </linearGradient>
  </defs>
  <rect width="1280" height="800" fill="#FFFFFF"/>
  <g opacity="0.05" stroke="#10192D" stroke-width="1">
    <path d="M0 160 H1280 M0 320 H1280 M0 480 H1280 M0 640 H1280 M256 0 V800 M512 0 V800 M768 0 V800 M1024 0 V800"/>
  </g>
  <rect x="120" y="140" width="440" height="52" rx="6" fill="#10192D"/>
  <rect x="120" y="216" width="320" height="52" rx="6" fill="#10192D"/>
  <rect x="120" y="300" width="80" height="6" rx="3" fill="url(#an-g)"/>
  <rect x="120" y="360" width="360" height="12" rx="6" fill="#98A2B3"/>
  <rect x="120" y="390" width="300" height="12" rx="6" fill="#98A2B3"/>
  <rect x="640" y="140" width="520" height="520" rx="16" fill="#F4F7FB" stroke="#E9EEF5"/>
  <polygon points="700,600 900,240 960,240 760,600" fill="#10192D"/>
  <polygon points="800,600 1000,240 1040,240 840,600" fill="url(#an-g)"/>
  <rect x="120" y="520" width="180" height="140" rx="12" fill="#0B1220"/>
  <rect x="330" y="520" width="180" height="140" rx="12" fill="#E9EEF5"/>
</svg>
