<svg xmlns="http://www.w3.org/2000/svg" viewBox="0 0 1280 800" width="1280" height="800" role="img" aria-label="Atelier Norte — captura de ejemplo 1">
  <defs>
    <linearGradient id="an1-g" x1="0" y1="0" x2="1280" y2="0" gradientUnits="userSpaceOnUse">
      <stop offset="0" stop-color="#6242FC"/>
      <stop offset="0.52" stop-color="#3882FB"/>
      <stop offset="1" stop-color="#10C8FC"/>
    </linearGradient>
  </defs>
  <rect width="1280" height="800" fill="#F4F7FB"/>
  <rect x="0" y="0" width="1280" height="72" fill="#FFFFFF"/>
  <rect x="80" y="28" width="120" height="16" rx="8" fill="#10192D"/>
  <g fill="#98A2B3">
    <rect x="880" y="30" width="60" height="12" rx="6"/>
    <rect x="960" y="30" width="60" height="12" rx="6"/>
    <rect x="1040" y="30" width="60" height="12" rx="6"/>
  </g>
  <rect x="80" y="160" width="700" height="440" rx="16" fill="#10192D"/>
  <polygon points="200,540 400,240 460,240 260,540" fill="url(#an1-g)" opacity="0.9"/>
  <rect x="830" y="160" width="370" height="200" rx="16" fill="#FFFFFF" stroke="#E9EEF5"/>
  <rect x="830" y="400" width="370" height="200" rx="16" fill="#FFFFFF" stroke="#E9EEF5"/>
  <rect x="864" y="200" width="200" height="16" rx="8" fill="#10192D"/>
  <rect x="864" y="236" width="140" height="10" rx="5" fill="#98A2B3"/>
  <rect x="864" y="440" width="200" height="16" rx="8" fill="#10192D"/>
  <rect x="864" y="476" width="140" height="10" rx="5" fill="#98A2B3"/>
</svg>
