<svg xmlns="http://www.w3.org/2000/svg" viewBox="0 0 1280 800" width="1280" height="800" role="img" aria-label="Nébula Runner — imagen de ejemplo">
  <defs>
    <linearGradient id="nr-g" x1="0" y1="0" x2="1280" y2="800" gradientUnits="userSpaceOnUse">
      <stop offset="0" stop-color="#6242FC"/>
      <stop offset="0.52" stop-color="#3882FB"/>
      <stop offset="1" stop-color="#10C8FC"/>
    </linearGradient>
  </defs>
  <rect width="1280" height="800" fill="#0B1220"/>
  <g opacity="0.06" stroke="#FFFFFF" stroke-width="1">
    <path d="M0 200 H1280 M0 400 H1280 M0 600 H1280 M320 0 V800 M640 0 V800 M960 0 V800"/>
  </g>
  <circle cx="1020" cy="180" r="120" fill="#17233A"/>
  <circle cx="1020" cy="180" r="60" fill="url(#nr-g)" opacity="0.85"/>
  <polygon points="120,700 420,180 470,180 170,700" fill="url(#nr-g)"/>
  <polygon points="240,700 540,180 575,180 275,700" fill="#17233A"/>
  <polygon points="340,700 640,180 665,180 365,700" fill="#10192D" stroke="#17233A"/>
  <rect x="120" y="726" width="760" height="8" rx="4" fill="url(#nr-g)"/>
  <circle cx="700" cy="560" r="14" fill="#10C8FC"/>
  <circle cx="780" cy="470" r="10" fill="#3882FB"/>
  <circle cx="850" cy="395" r="7" fill="#6242FC"/>
</svg>
