<svg xmlns="http://www.w3.org/2000/svg" viewBox="0 0 1280 800" width="1280" height="800" role="img" aria-label="Pulso — imagen de ejemplo">
  <defs>
    <linearGradient id="pl-g" x1="0" y1="0" x2="1280" y2="800" gradientUnits="userSpaceOnUse">
      <stop offset="0" stop-color="#6242FC"/>
      <stop offset="0.52" stop-color="#3882FB"/>
      <stop offset="1" stop-color="#10C8FC"/>
    </linearGradient>
  </defs>
  <rect width="1280" height="800" fill="#F4F7FB"/>
  <rect x="120" y="120" width="1040" height="560" rx="20" fill="#FFFFFF" stroke="#D8E0EC"/>
  <rect x="120" y="120" width="1040" height="64" rx="20" fill="#10192D"/>
  <rect x="160" y="146" width="120" height="12" rx="6" fill="#667085"/>
  <g fill="#E9EEF5">
    <rect x="180" y="560" width="72" height="80" rx="8"/>
    <rect x="300" y="500" width="72" height="140" rx="8"/>
    <rect x="420" y="440" width="72" height="200" rx="8"/>
    <rect x="540" y="520" width="72" height="120" rx="8"/>
    <rect x="660" y="400" width="72" height="240" rx="8"/>
  </g>
  <rect x="660" y="400" width="72" height="240" rx="8" fill="url(#pl-g)"/>
  <g stroke="#3882FB" stroke-width="4" fill="none">
    <path d="M820 560 L900 480 L980 520 L1080 420"/>
  </g>
  <circle cx="1080" cy="420" r="10" fill="#6242FC"/>
  <rect x="180" y="240" width="220" height="20" rx="10" fill="#10192D"/>
  <rect x="180" y="280" width="150" height="12" rx="6" fill="#98A2B3"/>
</svg>
