<svg xmlns="http://www.w3.org/2000/svg" viewBox="0 0 1280 800" width="1280" height="800" role="img" aria-label="Pulso — captura de ejemplo 1">
  <defs>
    <linearGradient id="pl1-g" x1="0" y1="0" x2="1280" y2="0" gradientUnits="userSpaceOnUse">
      <stop offset="0" stop-color="#6242FC"/>
      <stop offset="0.52" stop-color="#3882FB"/>
      <stop offset="1" stop-color="#10C8FC"/>
    </linearGradient>
  </defs>
  <rect width="1280" height="800" fill="#FFFFFF"/>
  <rect x="0" y="0" width="1280" height="8" fill="url(#pl1-g)"/>
  <g fill="#F4F7FB" stroke="#E9EEF5">
    <rect x="120" y="120" width="320" height="200" rx="16"/>
    <rect x="480" y="120" width="320" height="200" rx="16"/>
    <rect x="840" y="120" width="320" height="200" rx="16"/>
    <rect x="120" y="360" width="1040" height="320" rx="16"/>
  </g>
  <rect x="152" y="160" width="80" height="14" rx="7" fill="#98A2B3"/>
  <rect x="152" y="196" width="140" height="26" rx="8" fill="#10192D"/>
  <rect x="512" y="160" width="80" height="14" rx="7" fill="#98A2B3"/>
  <rect x="512" y="196" width="140" height="26" rx="8" fill="#10192D"/>
  <rect x="872" y="160" width="80" height="14" rx="7" fill="#98A2B3"/>
  <rect x="872" y="196" width="140" height="26" rx="8" fill="url(#pl1-g)"/>
  <g stroke="#3882FB" stroke-width="4" fill="none">
    <path d="M180 600 L340 520 L500 560 L660 470 L820 510 L980 430 L1100 460"/>
  </g>
</svg>
